<svg width="44" height="44" viewBox="0 0 44 44" fill="none" xmlns="http://www.w3.org/2000/svg">
<path d="M22 25.0333L28.2834 31.3167C28.6806 31.7139 29.1862 31.9125 29.8 31.9125C30.4139 31.9125 30.9195 31.7139 31.3167 31.3167C31.7139 30.9195 31.9125 30.4139 31.9125 29.8C31.9125 29.1861 31.7139 28.6806 31.3167 28.2833L25.0334 22L31.3167 15.7167C31.7139 15.3195 31.9125 14.8139 31.9125 14.2C31.9125 13.5861 31.7139 13.0806 31.3167 12.6833C30.9195 12.2861 30.4139 12.0875 29.8 12.0875C29.1862 12.0875 28.6806 12.2861 28.2834 12.6833L22 18.9667L15.7167 12.6833C15.3195 12.2861 14.8139 12.0875 14.2 12.0875C13.5862 12.0875 13.0806 12.2861 12.6834 12.6833C12.2862 13.0806 12.0875 13.5861 12.0875 14.2C12.0875 14.8139 12.2862 15.3195 12.6834 15.7167L18.9667 22L12.6834 28.2833C12.2862 28.6806 12.0875 29.1861 12.0875 29.8C12.0875 30.4139 12.2862 30.9195 12.6834 31.3167C13.0806 31.7139 13.5862 31.9125 14.2 31.9125C14.8139 31.9125 15.3195 31.7139 15.7167 31.3167L22 25.0333ZM22 43.6667C19.0028 43.6667 16.1862 43.0979 13.55 41.9604C10.9139 40.8229 8.62087 39.2792 6.67087 37.3292C4.72087 35.3792 3.17712 33.0861 2.03962 30.45C0.902124 27.8139 0.333374 24.9972 0.333374 22C0.333374 19.0028 0.902124 16.1861 2.03962 13.55C3.17712 10.9139 4.72087 8.62084 6.67087 6.67084C8.62087 4.72084 10.9139 3.17709 13.55 2.03959C16.1862 0.902094 19.0028 0.333344 22 0.333344C24.9973 0.333344 27.8139 0.902094 30.45 2.03959C33.0862 3.17709 35.3792 4.72084 37.3292 6.67084C39.2792 8.62084 40.823 10.9139 41.9605 13.55C43.098 16.1861 43.6667 19.0028 43.6667 22C43.6667 24.9972 43.098 27.8139 41.9605 30.45C40.823 33.0861 39.2792 35.3792 37.3292 37.3292C35.3792 39.2792 33.0862 40.8229 30.45 41.9604C27.8139 43.0979 24.9973 43.6667 22 43.6667ZM22 39.3333C26.8389 39.3333 30.9375 37.6542 34.2959 34.2958C37.6542 30.9375 39.3334 26.8389 39.3334 22C39.3334 17.1611 37.6542 13.0625 34.2959 9.70418C30.9375 6.34584 26.8389 4.66668 22 4.66668C17.1612 4.66668 13.0625 6.34584 9.70421 9.70418C6.34587 13.0625 4.66671 17.1611 4.66671 22C4.66671 26.8389 6.34587 30.9375 9.70421 34.2958C13.0625 37.6542 17.1612 39.3333 22 39.3333Z" fill="white"/>
</svg>
