<svg width="27" height="31" viewBox="0 0 27 31" fill="none" xmlns="http://www.w3.org/2000/svg">
<path d="M3.99619 27.25H8.86364V18.5C8.86364 18.0042 9.01913 17.5885 9.33011 17.2531C9.64108 16.9177 10.0264 16.75 10.4861 16.75H16.9761C17.4358 16.75 17.8211 16.9177 18.1321 17.2531C18.4431 17.5885 18.5985 18.0042 18.5985 18.5V27.25H23.466V11.5L13.7311 3.625L3.99619 11.5V27.25ZM0.751221 27.25V11.5C0.751221 10.9458 0.866147 10.4208 1.096 9.925C1.32585 9.42917 1.64359 9.02083 2.04921 8.7L11.7841 0.825C12.352 0.358333 13.001 0.125 13.7311 0.125C14.4612 0.125 15.1102 0.358333 15.6781 0.825L25.413 8.7C25.8186 9.02083 26.1363 9.42917 26.3662 9.925C26.596 10.4208 26.711 10.9458 26.711 11.5V27.25C26.711 28.2125 26.3932 29.0365 25.7578 29.7219C25.1223 30.4073 24.3584 30.75 23.466 30.75H16.9761C16.5164 30.75 16.131 30.5823 15.82 30.2469C15.5091 29.9115 15.3536 29.4958 15.3536 29V20.25H12.1086V29C12.1086 29.4958 11.9531 29.9115 11.6421 30.2469C11.3312 30.5823 10.9458 30.75 10.4861 30.75H3.99619C3.10382 30.75 2.3399 30.4073 1.70443 29.7219C1.06896 29.0365 0.751221 28.2125 0.751221 27.25Z" fill="#2271D1"/>
</svg>
